<?xml version="1.0" encoding="UTF-8" standalone="no"?>
<svg
   xmlns:dc="http://purl.org/dc/elements/1.1/"
   xmlns:cc="http://creativecommons.org/ns#"
   xmlns:rdf="http://www.w3.org/1999/02/22-rdf-syntax-ns#"
   xmlns:svg="http://www.w3.org/2000/svg"
   xmlns="http://www.w3.org/2000/svg"
   xmlns:sodipodi="http://sodipodi.sourceforge.net/DTD/sodipodi-0.dtd"
   xmlns:inkscape="http://www.inkscape.org/namespaces/inkscape"
   width="6"
   height="9"
   id="svg3453"
   version="1.1"
   inkscape:version="0.91 r13725"
   sodipodi:docname="left_arrow_disabled1.svg">
  <metadata
     id="metadata3461">
    <rdf:RDF>
      <cc:Work
         rdf:about="">
        <dc:format>image/svg+xml</dc:format>
        <dc:type
           rdf:resource="http://purl.org/dc/dcmitype/StillImage" />
        <dc:title></dc:title>
      </cc:Work>
    </rdf:RDF>
  </metadata>
  <defs
     id="defs3459" />
  <sodipodi:namedview
     pagecolor="#ffffff"
     bordercolor="#666666"
     borderopacity="1"
     objecttolerance="10"
     gridtolerance="10"
     guidetolerance="10"
     inkscape:pageopacity="0"
     inkscape:pageshadow="2"
     inkscape:window-width="1313"
     inkscape:window-height="744"
     id="namedview3457"
     showgrid="false"
     inkscape:zoom="33.722222"
     inkscape:cx="3.2727636"
     inkscape:cy="5.6492025"
     inkscape:window-x="53"
     inkscape:window-y="24"
     inkscape:window-maximized="1"
     inkscape:current-layer="svg3453" />
  <path
     d="M 2.171875 1.3046875 C 2.1750314 1.3241778 2.1715109 1.3165944 2.1777344 1.3457031 C 2.1800244 1.3564021 2.1813875 1.323307 2.1796875 1.3125 L 2.171875 1.3046875 z M 2.453125 1.5859375 C 2.4544742 1.5883013 2.4563494 1.5910614 2.4570312 1.5917969 C 2.4633074 1.5985671 2.4697901 1.6050258 2.4765625 1.6113281 C 2.4771834 1.6113838 2.4778939 1.6112694 2.4785156 1.6113281 L 2.453125 1.5859375 z M 2.6054688 1.7597656 C 2.6131341 1.7644667 2.6211947 1.7688094 2.6289062 1.7734375 C 2.6280269 1.7715256 2.6278411 1.7694764 2.6269531 1.7675781 C 2.6199851 1.7646582 2.6181385 1.7521938 2.6054688 1.7597656 z M 2.671875 2.0683594 C 2.6731747 2.0689156 2.6744828 2.0697534 2.6757812 2.0703125 C 2.677911 2.0689092 2.6794981 2.0683754 2.6835938 2.0683594 C 2.6797457 2.0681565 2.6757556 2.0683223 2.671875 2.0683594 z M 2.6523438 6.1132812 C 2.6505127 6.116409 2.648058 6.1197819 2.6464844 6.1230469 C 2.6455552 6.1249734 2.6472635 6.1257291 2.6464844 6.1289062 C 2.6483615 6.123442 2.6505626 6.1187801 2.6523438 6.1132812 z M 2.4648438 7.1601562 C 2.4624842 7.1632304 2.4584653 7.1652979 2.4570312 7.1679688 C 2.455103 7.1715606 2.4551714 7.1743176 2.453125 7.1796875 C 2.454106 7.1784582 2.4559988 7.1750461 2.4570312 7.1738281 C 2.4586249 7.1685155 2.4632231 7.1649698 2.4648438 7.1601562 z M 1.3945312 7.9414062 C 1.3919913 7.9464762 1.3888286 7.9498211 1.3867188 7.9550781 L 1.3945312 7.9414062 z "
     id="path3455" />
  <path
     sodipodi:type="star"
     style="fill:#000000"
     id="path3523"
     sodipodi:sides="3"
     sodipodi:cx="2.1499176"
     sodipodi:cy="4.685338"
     sodipodi:r1="3.8381362"
     sodipodi:r2="1.9190681"
     sodipodi:arg1="-2.0880258"
     sodipodi:arg2="-1.0408283"
     inkscape:flatsided="false"
     inkscape:rounded="0"
     inkscape:randomized="0"
     d="M 0.25205936,1.349259 3.1200176,3.0295215 5.9879759,4.7097841 3.0988468,6.3533775 0.2097175,7.996971 0.23088843,4.6731151 Z"
     inkscape:transform-center-x="0.6713444"
     inkscape:transform-center-y="-0.016241661"
     transform="matrix(-0.70747586,0,0,1.3287581,5.5136111,-1.6742224)" />
</svg>
