<?xml version="1.0" encoding="UTF-8" standalone="no"?>
<svg
   xmlns:dc="http://purl.org/dc/elements/1.1/"
   xmlns:cc="http://creativecommons.org/ns#"
   xmlns:rdf="http://www.w3.org/1999/02/22-rdf-syntax-ns#"
   xmlns:svg="http://www.w3.org/2000/svg"
   xmlns="http://www.w3.org/2000/svg"
   xmlns:sodipodi="http://sodipodi.sourceforge.net/DTD/sodipodi-0.dtd"
   xmlns:inkscape="http://www.inkscape.org/namespaces/inkscape"
   width="8"
   height="9"
   id="svg3453"
   version="1.1"
   inkscape:version="0.91 r13725"
   sodipodi:docname="right_arrow1.svg">
  <metadata
     id="metadata3461">
    <rdf:RDF>
      <cc:Work
         rdf:about="">
        <dc:format>image/svg+xml</dc:format>
        <dc:type
           rdf:resource="http://purl.org/dc/dcmitype/StillImage" />
        <dc:title></dc:title>
      </cc:Work>
    </rdf:RDF>
  </metadata>
  <defs
     id="defs3459" />
  <sodipodi:namedview
     pagecolor="#ffffff"
     bordercolor="#666666"
     borderopacity="1"
     objecttolerance="10"
     gridtolerance="10"
     guidetolerance="10"
     inkscape:pageopacity="0"
     inkscape:pageshadow="2"
     inkscape:window-width="1313"
     inkscape:window-height="744"
     id="namedview3457"
     showgrid="false"
     inkscape:zoom="33.722222"
     inkscape:cx="3.2727636"
     inkscape:cy="5.6492025"
     inkscape:window-x="53"
     inkscape:window-y="24"
     inkscape:window-maximized="1"
     inkscape:current-layer="svg3453" />
  <path
     d="m 2.171875,1.3046875 c 0.00316,0.01949 -3.641e-4,0.011907 0.00586,0.041016 0.00229,0.010699 0.00365,-0.022396 0.00195,-0.033203 l -0.00781,-0.00781 z m 0.28125,0.28125 c 0.00135,0.00236 0.00322,0.00512 0.00391,0.00586 0.00628,0.00677 0.012759,0.013229 0.019531,0.019531 6.209e-4,5.57e-5 0.00133,-5.87e-5 0.00195,0 L 2.453125,1.5859375 Z m 0.1523438,0.1738281 c 0.00767,0.0047 0.015726,0.00904 0.023437,0.013672 -8.793e-4,-0.00191 -0.00107,-0.00396 -0.00195,-0.00586 -0.00697,-0.00292 -0.00881,-0.015384 -0.021484,-0.00781 z m 0.066406,0.3085938 c 0.0013,5.562e-4 0.00261,0.00139 0.00391,0.00195 0.00213,-0.0014 0.00372,-0.00194 0.00781,-0.00195 -0.00385,-2.029e-4 -0.00784,-3.71e-5 -0.011719,0 z m -0.019531,4.0449218 c -0.00183,0.00313 -0.00429,0.0065 -0.00586,0.00977 -9.292e-4,0.00193 7.791e-4,0.00268 0,0.00586 0.00188,-0.00546 0.00408,-0.010126 0.00586,-0.015625 z m -0.1875,1.046875 c -0.00236,0.00307 -0.00638,0.00514 -0.00781,0.00781 -0.00193,0.00359 -0.00186,0.00635 -0.00391,0.011719 9.81e-4,-0.00123 0.00287,-0.00464 0.00391,-0.00586 0.00159,-0.00531 0.00619,-0.00886 0.00781,-0.013672 z m -1.0703126,0.78125 c -0.00254,0.00507 -0.0057,0.00841 -0.00781,0.013672 l 0.00781,-0.013672 z"
     id="path3455"
     inkscape:connector-curvature="0" />
  <path
     sodipodi:type="star"
     style="fill:#000000"
     id="path3523"
     sodipodi:sides="3"
     sodipodi:cx="2.1499176"
     sodipodi:cy="4.685338"
     sodipodi:r1="3.8381362"
     sodipodi:r2="1.9190681"
     sodipodi:arg1="-2.0880258"
     sodipodi:arg2="-1.0408283"
     inkscape:flatsided="false"
     inkscape:rounded="0"
     inkscape:randomized="0"
     d="M 0.25205936,1.349259 3.1200176,3.0295215 5.9879759,4.7097841 3.0988468,6.3533775 0.2097175,7.996971 0.23088843,4.6731151 Z"
     inkscape:transform-center-x="-1.0073678"
     inkscape:transform-center-y="-0.016241661"
     transform="matrix(1.061584,0,0,1.3287581,1.0546299,-1.6742224)" />
</svg>
